# xmcd
#
# Track frame offsets: 
#        150
#        20506
#        37565
#
# Disc length: 758 seconds
#
# Revision: 0
# Processed by: cddbd v1.5.2PL0 Copyright (c) Steve Scherf et al.
# Submitted via: ExactAudioCopy v1.1
#
DISCID=1302f403
DTITLE=ラブハンドルズ - 君に歌いたい
DYEAR=2008
DGENRE=Pop
TTITLE0=君に歌いたい
TTITLE1=朝が来る前に
TTITLE2=しばらく一人になりたい (Session at Flamingo Studio)
EXTD=
EXTT0=
EXTT1=
EXTT2=
PLAYORDER=
